<?xml version="1.0" standalone="no"?>
<!DOCTYPE svg PUBLIC "-//W3C//DTD SVG 20010904//EN"
 "http://www.w3.org/TR/2001/REC-SVG-20010904/DTD/svg10.dtd">
<svg version="1.0" xmlns="http://www.w3.org/2000/svg"
 width="200.000000pt" height="112.000000pt" viewBox="0 0 200.000000 112.000000"
 preserveAspectRatio="xMidYMid meet">

<g transform="translate(0.000000,112.000000) scale(0.100000,-0.100000)"
fill="#000000" stroke="none">
<path d="M0 560 l0 -560 1000 0 1000 0 0 560 0 560 -1000 0 -1000 0 0 -560z
m1224 314 c100 -74 192 -142 205 -152 73 -51 72 -50 69 -140 l-3 -83 -32 23
c-17 13 -41 30 -53 38 -13 8 -35 24 -49 35 -14 12 -36 27 -48 35 -12 8 -87 63
-167 123 -80 59 -148 107 -151 107 -5 0 -79 -54 -380 -278 -55 -41 -106 -77
-112 -79 -10 -4 -13 16 -13 80 l0 85 147 108 c175 130 276 204 322 239 41 30
14 45 265 -141z m-25 -389 c108 -79 204 -151 214 -160 9 -8 20 -15 25 -15 4 0
20 -12 35 -25 27 -24 28 -28 25 -110 l-3 -85 -95 70 c-52 38 -119 86 -148 107
-29 21 -63 46 -75 56 -12 9 -58 43 -103 76 l-80 58 -47 -36 c-25 -20 -71 -54
-102 -76 -31 -22 -61 -45 -68 -50 -7 -6 -34 -26 -62 -45 -27 -19 -52 -38 -55
-42 -3 -3 -30 -23 -60 -44 -30 -20 -57 -40 -60 -44 -3 -4 -15 -12 -27 -19 -23
-12 -23 -12 -23 73 0 80 1 85 28 105 49 38 139 104 277 206 75 55 149 110 163
122 15 12 31 23 36 23 4 0 97 -65 205 -145z"/>
</g>
</svg>
